<?xml version="1.0" encoding="UTF-8" standalone="no"?>
<?xml-stylesheet href="styles.css" type="text/css"?>
<!DOCTYPE svg PUBLIC "-//W3C//DTD SVG 1.1//EN"
 "http://www.w3.org/Graphics/SVG/1.1/DTD/svg11.dtd">
<!-- Generated by graphviz version 2.43.0 (0)
 -->
<!-- Title: InvShiftRows Pages: 1 -->
<svg width="320pt" height="909pt"
 viewBox="0.00 0.00 320.00 909.00" xmlns="http://www.w3.org/2000/svg" xmlns:xlink="http://www.w3.org/1999/xlink">
<g id="graph0" class="graph" transform="scale(1 1) rotate(0) translate(4 905)">
<title>InvShiftRows</title>
<polygon fill="white" stroke="transparent" points="-4,4 -4,-905 316,-905 316,4 -4,4"/>
<g id="clust1" class="cluster">
<title>cluster_InvShiftRows</title>
<polygon fill="#fff8dc" stroke="black" points="8,-8 8,-893 304,-893 304,-8 8,-8"/>
<text text-anchor="middle" x="156" y="-877.8" font-family="Times,serif" font-size="14.00">InvShiftRows</text>
</g>
<!-- cluster_InvShiftRows_io_state_in_0 -->
<g id="node1" class="node">
<title>cluster_InvShiftRows_io_state_in_0</title>
<polygon fill="#cccccc" stroke="black" points="128.5,-862 20.5,-862 20.5,-826 128.5,-826 128.5,-862"/>
<text text-anchor="middle" x="74.5" y="-840.3" font-family="Times,serif" font-size="14.00">io_state_in_0</text>
</g>
<!-- cluster_InvShiftRows_io_state_out_0 -->
<g id="node17" class="node">
<title>cluster_InvShiftRows_io_state_out_0</title>
<polygon fill="#e0ffff" stroke="black" points="291.5,-862 173.5,-862 173.5,-826 291.5,-826 291.5,-862"/>
<text text-anchor="middle" x="232.5" y="-840.3" font-family="Times,serif" font-size="14.00">io_state_out_0</text>
</g>
<!-- cluster_InvShiftRows_io_state_in_0&#45;&gt;cluster_InvShiftRows_io_state_out_0 -->
<g id="edge9" class="edge">
<title>cluster_InvShiftRows_io_state_in_0&#45;&gt;cluster_InvShiftRows_io_state_out_0</title>
<path fill="none" stroke="black" d="M128.75,-844C139.88,-844 151.76,-844 163.34,-844"/>
<polygon fill="black" stroke="black" points="163.42,-847.5 173.42,-844 163.42,-840.5 163.42,-847.5"/>
</g>
<!-- cluster_InvShiftRows_io_state_in_1 -->
<g id="node2" class="node">
<title>cluster_InvShiftRows_io_state_in_1</title>
<polygon fill="#cccccc" stroke="black" points="128.5,-808 20.5,-808 20.5,-772 128.5,-772 128.5,-808"/>
<text text-anchor="middle" x="74.5" y="-786.3" font-family="Times,serif" font-size="14.00">io_state_in_1</text>
</g>
<!-- cluster_InvShiftRows_io_state_out_5 -->
<g id="node22" class="node">
<title>cluster_InvShiftRows_io_state_out_5</title>
<polygon fill="#e0ffff" stroke="black" points="291.5,-808 173.5,-808 173.5,-772 291.5,-772 291.5,-808"/>
<text text-anchor="middle" x="232.5" y="-786.3" font-family="Times,serif" font-size="14.00">io_state_out_5</text>
</g>
<!-- cluster_InvShiftRows_io_state_in_1&#45;&gt;cluster_InvShiftRows_io_state_out_5 -->
<g id="edge14" class="edge">
<title>cluster_InvShiftRows_io_state_in_1&#45;&gt;cluster_InvShiftRows_io_state_out_5</title>
<path fill="none" stroke="black" d="M128.75,-790C139.88,-790 151.76,-790 163.34,-790"/>
<polygon fill="black" stroke="black" points="163.42,-793.5 173.42,-790 163.42,-786.5 163.42,-793.5"/>
</g>
<!-- cluster_InvShiftRows_io_state_in_2 -->
<g id="node3" class="node">
<title>cluster_InvShiftRows_io_state_in_2</title>
<polygon fill="#cccccc" stroke="black" points="128.5,-754 20.5,-754 20.5,-718 128.5,-718 128.5,-754"/>
<text text-anchor="middle" x="74.5" y="-732.3" font-family="Times,serif" font-size="14.00">io_state_in_2</text>
</g>
<!-- cluster_InvShiftRows_io_state_out_10 -->
<g id="node27" class="node">
<title>cluster_InvShiftRows_io_state_out_10</title>
<polygon fill="#e0ffff" stroke="black" points="296,-754 169,-754 169,-718 296,-718 296,-754"/>
<text text-anchor="middle" x="232.5" y="-732.3" font-family="Times,serif" font-size="14.00">io_state_out_10</text>
</g>
<!-- cluster_InvShiftRows_io_state_in_2&#45;&gt;cluster_InvShiftRows_io_state_out_10 -->
<g id="edge7" class="edge">
<title>cluster_InvShiftRows_io_state_in_2&#45;&gt;cluster_InvShiftRows_io_state_out_10</title>
<path fill="none" stroke="black" d="M128.75,-736C138.42,-736 148.65,-736 158.76,-736"/>
<polygon fill="black" stroke="black" points="158.81,-739.5 168.81,-736 158.81,-732.5 158.81,-739.5"/>
</g>
<!-- cluster_InvShiftRows_io_state_in_3 -->
<g id="node4" class="node">
<title>cluster_InvShiftRows_io_state_in_3</title>
<polygon fill="#cccccc" stroke="black" points="128.5,-700 20.5,-700 20.5,-664 128.5,-664 128.5,-700"/>
<text text-anchor="middle" x="74.5" y="-678.3" font-family="Times,serif" font-size="14.00">io_state_in_3</text>
</g>
<!-- cluster_InvShiftRows_io_state_out_15 -->
<g id="node32" class="node">
<title>cluster_InvShiftRows_io_state_out_15</title>
<polygon fill="#e0ffff" stroke="black" points="296,-700 169,-700 169,-664 296,-664 296,-700"/>
<text text-anchor="middle" x="232.5" y="-678.3" font-family="Times,serif" font-size="14.00">io_state_out_15</text>
</g>
<!-- cluster_InvShiftRows_io_state_in_3&#45;&gt;cluster_InvShiftRows_io_state_out_15 -->
<g id="edge12" class="edge">
<title>cluster_InvShiftRows_io_state_in_3&#45;&gt;cluster_InvShiftRows_io_state_out_15</title>
<path fill="none" stroke="black" d="M128.75,-682C138.42,-682 148.65,-682 158.76,-682"/>
<polygon fill="black" stroke="black" points="158.81,-685.5 168.81,-682 158.81,-678.5 158.81,-685.5"/>
</g>
<!-- cluster_InvShiftRows_io_state_in_4 -->
<g id="node5" class="node">
<title>cluster_InvShiftRows_io_state_in_4</title>
<polygon fill="#cccccc" stroke="black" points="128.5,-646 20.5,-646 20.5,-610 128.5,-610 128.5,-646"/>
<text text-anchor="middle" x="74.5" y="-624.3" font-family="Times,serif" font-size="14.00">io_state_in_4</text>
</g>
<!-- cluster_InvShiftRows_io_state_out_4 -->
<g id="node21" class="node">
<title>cluster_InvShiftRows_io_state_out_4</title>
<polygon fill="#e0ffff" stroke="black" points="291.5,-646 173.5,-646 173.5,-610 291.5,-610 291.5,-646"/>
<text text-anchor="middle" x="232.5" y="-624.3" font-family="Times,serif" font-size="14.00">io_state_out_4</text>
</g>
<!-- cluster_InvShiftRows_io_state_in_4&#45;&gt;cluster_InvShiftRows_io_state_out_4 -->
<g id="edge4" class="edge">
<title>cluster_InvShiftRows_io_state_in_4&#45;&gt;cluster_InvShiftRows_io_state_out_4</title>
<path fill="none" stroke="black" d="M128.75,-628C139.88,-628 151.76,-628 163.34,-628"/>
<polygon fill="black" stroke="black" points="163.42,-631.5 173.42,-628 163.42,-624.5 163.42,-631.5"/>
</g>
<!-- cluster_InvShiftRows_io_state_in_5 -->
<g id="node6" class="node">
<title>cluster_InvShiftRows_io_state_in_5</title>
<polygon fill="#cccccc" stroke="black" points="128.5,-592 20.5,-592 20.5,-556 128.5,-556 128.5,-592"/>
<text text-anchor="middle" x="74.5" y="-570.3" font-family="Times,serif" font-size="14.00">io_state_in_5</text>
</g>
<!-- cluster_InvShiftRows_io_state_out_9 -->
<g id="node26" class="node">
<title>cluster_InvShiftRows_io_state_out_9</title>
<polygon fill="#e0ffff" stroke="black" points="291.5,-592 173.5,-592 173.5,-556 291.5,-556 291.5,-592"/>
<text text-anchor="middle" x="232.5" y="-570.3" font-family="Times,serif" font-size="14.00">io_state_out_9</text>
</g>
<!-- cluster_InvShiftRows_io_state_in_5&#45;&gt;cluster_InvShiftRows_io_state_out_9 -->
<g id="edge10" class="edge">
<title>cluster_InvShiftRows_io_state_in_5&#45;&gt;cluster_InvShiftRows_io_state_out_9</title>
<path fill="none" stroke="black" d="M128.75,-574C139.88,-574 151.76,-574 163.34,-574"/>
<polygon fill="black" stroke="black" points="163.42,-577.5 173.42,-574 163.42,-570.5 163.42,-577.5"/>
</g>
<!-- cluster_InvShiftRows_io_state_in_6 -->
<g id="node7" class="node">
<title>cluster_InvShiftRows_io_state_in_6</title>
<polygon fill="#cccccc" stroke="black" points="128.5,-538 20.5,-538 20.5,-502 128.5,-502 128.5,-538"/>
<text text-anchor="middle" x="74.5" y="-516.3" font-family="Times,serif" font-size="14.00">io_state_in_6</text>
</g>
<!-- cluster_InvShiftRows_io_state_out_14 -->
<g id="node31" class="node">
<title>cluster_InvShiftRows_io_state_out_14</title>
<polygon fill="#e0ffff" stroke="black" points="296,-538 169,-538 169,-502 296,-502 296,-538"/>
<text text-anchor="middle" x="232.5" y="-516.3" font-family="Times,serif" font-size="14.00">io_state_out_14</text>
</g>
<!-- cluster_InvShiftRows_io_state_in_6&#45;&gt;cluster_InvShiftRows_io_state_out_14 -->
<g id="edge3" class="edge">
<title>cluster_InvShiftRows_io_state_in_6&#45;&gt;cluster_InvShiftRows_io_state_out_14</title>
<path fill="none" stroke="black" d="M128.75,-520C138.42,-520 148.65,-520 158.76,-520"/>
<polygon fill="black" stroke="black" points="158.81,-523.5 168.81,-520 158.81,-516.5 158.81,-523.5"/>
</g>
<!-- cluster_InvShiftRows_io_state_in_7 -->
<g id="node8" class="node">
<title>cluster_InvShiftRows_io_state_in_7</title>
<polygon fill="#cccccc" stroke="black" points="128.5,-484 20.5,-484 20.5,-448 128.5,-448 128.5,-484"/>
<text text-anchor="middle" x="74.5" y="-462.3" font-family="Times,serif" font-size="14.00">io_state_in_7</text>
</g>
<!-- cluster_InvShiftRows_io_state_out_3 -->
<g id="node20" class="node">
<title>cluster_InvShiftRows_io_state_out_3</title>
<polygon fill="#e0ffff" stroke="black" points="291.5,-484 173.5,-484 173.5,-448 291.5,-448 291.5,-484"/>
<text text-anchor="middle" x="232.5" y="-462.3" font-family="Times,serif" font-size="14.00">io_state_out_3</text>
</g>
<!-- cluster_InvShiftRows_io_state_in_7&#45;&gt;cluster_InvShiftRows_io_state_out_3 -->
<g id="edge11" class="edge">
<title>cluster_InvShiftRows_io_state_in_7&#45;&gt;cluster_InvShiftRows_io_state_out_3</title>
<path fill="none" stroke="black" d="M128.75,-466C139.88,-466 151.76,-466 163.34,-466"/>
<polygon fill="black" stroke="black" points="163.42,-469.5 173.42,-466 163.42,-462.5 163.42,-469.5"/>
</g>
<!-- cluster_InvShiftRows_io_state_in_8 -->
<g id="node9" class="node">
<title>cluster_InvShiftRows_io_state_in_8</title>
<polygon fill="#cccccc" stroke="black" points="128.5,-430 20.5,-430 20.5,-394 128.5,-394 128.5,-430"/>
<text text-anchor="middle" x="74.5" y="-408.3" font-family="Times,serif" font-size="14.00">io_state_in_8</text>
</g>
<!-- cluster_InvShiftRows_io_state_out_8 -->
<g id="node25" class="node">
<title>cluster_InvShiftRows_io_state_out_8</title>
<polygon fill="#e0ffff" stroke="black" points="291.5,-430 173.5,-430 173.5,-394 291.5,-394 291.5,-430"/>
<text text-anchor="middle" x="232.5" y="-408.3" font-family="Times,serif" font-size="14.00">io_state_out_8</text>
</g>
<!-- cluster_InvShiftRows_io_state_in_8&#45;&gt;cluster_InvShiftRows_io_state_out_8 -->
<g id="edge15" class="edge">
<title>cluster_InvShiftRows_io_state_in_8&#45;&gt;cluster_InvShiftRows_io_state_out_8</title>
<path fill="none" stroke="black" d="M128.75,-412C139.88,-412 151.76,-412 163.34,-412"/>
<polygon fill="black" stroke="black" points="163.42,-415.5 173.42,-412 163.42,-408.5 163.42,-415.5"/>
</g>
<!-- cluster_InvShiftRows_io_state_in_9 -->
<g id="node10" class="node">
<title>cluster_InvShiftRows_io_state_in_9</title>
<polygon fill="#cccccc" stroke="black" points="128.5,-376 20.5,-376 20.5,-340 128.5,-340 128.5,-376"/>
<text text-anchor="middle" x="74.5" y="-354.3" font-family="Times,serif" font-size="14.00">io_state_in_9</text>
</g>
<!-- cluster_InvShiftRows_io_state_out_13 -->
<g id="node30" class="node">
<title>cluster_InvShiftRows_io_state_out_13</title>
<polygon fill="#e0ffff" stroke="black" points="296,-376 169,-376 169,-340 296,-340 296,-376"/>
<text text-anchor="middle" x="232.5" y="-354.3" font-family="Times,serif" font-size="14.00">io_state_out_13</text>
</g>
<!-- cluster_InvShiftRows_io_state_in_9&#45;&gt;cluster_InvShiftRows_io_state_out_13 -->
<g id="edge8" class="edge">
<title>cluster_InvShiftRows_io_state_in_9&#45;&gt;cluster_InvShiftRows_io_state_out_13</title>
<path fill="none" stroke="black" d="M128.75,-358C138.42,-358 148.65,-358 158.76,-358"/>
<polygon fill="black" stroke="black" points="158.81,-361.5 168.81,-358 158.81,-354.5 158.81,-361.5"/>
</g>
<!-- cluster_InvShiftRows_io_state_in_10 -->
<g id="node11" class="node">
<title>cluster_InvShiftRows_io_state_in_10</title>
<polygon fill="#cccccc" stroke="black" points="133,-322 16,-322 16,-286 133,-286 133,-322"/>
<text text-anchor="middle" x="74.5" y="-300.3" font-family="Times,serif" font-size="14.00">io_state_in_10</text>
</g>
<!-- cluster_InvShiftRows_io_state_out_2 -->
<g id="node19" class="node">
<title>cluster_InvShiftRows_io_state_out_2</title>
<polygon fill="#e0ffff" stroke="black" points="291.5,-322 173.5,-322 173.5,-286 291.5,-286 291.5,-322"/>
<text text-anchor="middle" x="232.5" y="-300.3" font-family="Times,serif" font-size="14.00">io_state_out_2</text>
</g>
<!-- cluster_InvShiftRows_io_state_in_10&#45;&gt;cluster_InvShiftRows_io_state_out_2 -->
<g id="edge13" class="edge">
<title>cluster_InvShiftRows_io_state_in_10&#45;&gt;cluster_InvShiftRows_io_state_out_2</title>
<path fill="none" stroke="black" d="M133.15,-304C142.87,-304 153.05,-304 163.02,-304"/>
<polygon fill="black" stroke="black" points="163.31,-307.5 173.31,-304 163.31,-300.5 163.31,-307.5"/>
</g>
<!-- cluster_InvShiftRows_io_state_in_11 -->
<g id="node12" class="node">
<title>cluster_InvShiftRows_io_state_in_11</title>
<polygon fill="#cccccc" stroke="black" points="133,-268 16,-268 16,-232 133,-232 133,-268"/>
<text text-anchor="middle" x="74.5" y="-246.3" font-family="Times,serif" font-size="14.00">io_state_in_11</text>
</g>
<!-- cluster_InvShiftRows_io_state_out_7 -->
<g id="node24" class="node">
<title>cluster_InvShiftRows_io_state_out_7</title>
<polygon fill="#e0ffff" stroke="black" points="291.5,-268 173.5,-268 173.5,-232 291.5,-232 291.5,-268"/>
<text text-anchor="middle" x="232.5" y="-246.3" font-family="Times,serif" font-size="14.00">io_state_out_7</text>
</g>
<!-- cluster_InvShiftRows_io_state_in_11&#45;&gt;cluster_InvShiftRows_io_state_out_7 -->
<g id="edge1" class="edge">
<title>cluster_InvShiftRows_io_state_in_11&#45;&gt;cluster_InvShiftRows_io_state_out_7</title>
<path fill="none" stroke="black" d="M133.15,-250C142.87,-250 153.05,-250 163.02,-250"/>
<polygon fill="black" stroke="black" points="163.31,-253.5 173.31,-250 163.31,-246.5 163.31,-253.5"/>
</g>
<!-- cluster_InvShiftRows_io_state_in_12 -->
<g id="node13" class="node">
<title>cluster_InvShiftRows_io_state_in_12</title>
<polygon fill="#cccccc" stroke="black" points="133,-214 16,-214 16,-178 133,-178 133,-214"/>
<text text-anchor="middle" x="74.5" y="-192.3" font-family="Times,serif" font-size="14.00">io_state_in_12</text>
</g>
<!-- cluster_InvShiftRows_io_state_out_12 -->
<g id="node29" class="node">
<title>cluster_InvShiftRows_io_state_out_12</title>
<polygon fill="#e0ffff" stroke="black" points="296,-214 169,-214 169,-178 296,-178 296,-214"/>
<text text-anchor="middle" x="232.5" y="-192.3" font-family="Times,serif" font-size="14.00">io_state_out_12</text>
</g>
<!-- cluster_InvShiftRows_io_state_in_12&#45;&gt;cluster_InvShiftRows_io_state_out_12 -->
<g id="edge16" class="edge">
<title>cluster_InvShiftRows_io_state_in_12&#45;&gt;cluster_InvShiftRows_io_state_out_12</title>
<path fill="none" stroke="black" d="M133.15,-196C141.5,-196 150.2,-196 158.81,-196"/>
<polygon fill="black" stroke="black" points="158.85,-199.5 168.85,-196 158.85,-192.5 158.85,-199.5"/>
</g>
<!-- cluster_InvShiftRows_io_state_in_13 -->
<g id="node14" class="node">
<title>cluster_InvShiftRows_io_state_in_13</title>
<polygon fill="#cccccc" stroke="black" points="133,-160 16,-160 16,-124 133,-124 133,-160"/>
<text text-anchor="middle" x="74.5" y="-138.3" font-family="Times,serif" font-size="14.00">io_state_in_13</text>
</g>
<!-- cluster_InvShiftRows_io_state_out_1 -->
<g id="node18" class="node">
<title>cluster_InvShiftRows_io_state_out_1</title>
<polygon fill="#e0ffff" stroke="black" points="291.5,-160 173.5,-160 173.5,-124 291.5,-124 291.5,-160"/>
<text text-anchor="middle" x="232.5" y="-138.3" font-family="Times,serif" font-size="14.00">io_state_out_1</text>
</g>
<!-- cluster_InvShiftRows_io_state_in_13&#45;&gt;cluster_InvShiftRows_io_state_out_1 -->
<g id="edge2" class="edge">
<title>cluster_InvShiftRows_io_state_in_13&#45;&gt;cluster_InvShiftRows_io_state_out_1</title>
<path fill="none" stroke="black" d="M133.15,-142C142.87,-142 153.05,-142 163.02,-142"/>
<polygon fill="black" stroke="black" points="163.31,-145.5 173.31,-142 163.31,-138.5 163.31,-145.5"/>
</g>
<!-- cluster_InvShiftRows_io_state_in_14 -->
<g id="node15" class="node">
<title>cluster_InvShiftRows_io_state_in_14</title>
<polygon fill="#cccccc" stroke="black" points="133,-106 16,-106 16,-70 133,-70 133,-106"/>
<text text-anchor="middle" x="74.5" y="-84.3" font-family="Times,serif" font-size="14.00">io_state_in_14</text>
</g>
<!-- cluster_InvShiftRows_io_state_out_6 -->
<g id="node23" class="node">
<title>cluster_InvShiftRows_io_state_out_6</title>
<polygon fill="#e0ffff" stroke="black" points="291.5,-106 173.5,-106 173.5,-70 291.5,-70 291.5,-106"/>
<text text-anchor="middle" x="232.5" y="-84.3" font-family="Times,serif" font-size="14.00">io_state_out_6</text>
</g>
<!-- cluster_InvShiftRows_io_state_in_14&#45;&gt;cluster_InvShiftRows_io_state_out_6 -->
<g id="edge6" class="edge">
<title>cluster_InvShiftRows_io_state_in_14&#45;&gt;cluster_InvShiftRows_io_state_out_6</title>
<path fill="none" stroke="black" d="M133.15,-88C142.87,-88 153.05,-88 163.02,-88"/>
<polygon fill="black" stroke="black" points="163.31,-91.5 173.31,-88 163.31,-84.5 163.31,-91.5"/>
</g>
<!-- cluster_InvShiftRows_io_state_in_15 -->
<g id="node16" class="node">
<title>cluster_InvShiftRows_io_state_in_15</title>
<polygon fill="#cccccc" stroke="black" points="133,-52 16,-52 16,-16 133,-16 133,-52"/>
<text text-anchor="middle" x="74.5" y="-30.3" font-family="Times,serif" font-size="14.00">io_state_in_15</text>
</g>
<!-- cluster_InvShiftRows_io_state_out_11 -->
<g id="node28" class="node">
<title>cluster_InvShiftRows_io_state_out_11</title>
<polygon fill="#e0ffff" stroke="black" points="296,-52 169,-52 169,-16 296,-16 296,-52"/>
<text text-anchor="middle" x="232.5" y="-30.3" font-family="Times,serif" font-size="14.00">io_state_out_11</text>
</g>
<!-- cluster_InvShiftRows_io_state_in_15&#45;&gt;cluster_InvShiftRows_io_state_out_11 -->
<g id="edge5" class="edge">
<title>cluster_InvShiftRows_io_state_in_15&#45;&gt;cluster_InvShiftRows_io_state_out_11</title>
<path fill="none" stroke="black" d="M133.15,-34C141.5,-34 150.2,-34 158.81,-34"/>
<polygon fill="black" stroke="black" points="158.85,-37.5 168.85,-34 158.85,-30.5 158.85,-37.5"/>
</g>
</g>
</svg>
