<?xml version="1.0" encoding="UTF-8" standalone="no"?>
<?xml-stylesheet href="styles.css" type="text/css"?>
<!DOCTYPE svg PUBLIC "-//W3C//DTD SVG 1.1//EN"
 "http://www.w3.org/Graphics/SVG/1.1/DTD/svg11.dtd">
<!-- Generated by graphviz version 2.43.0 (0)
 -->
<!-- Title: SE_hierarchy Pages: 1 -->
<svg width="814pt" height="943pt"
 viewBox="0.00 0.00 814.00 943.00" xmlns="http://www.w3.org/2000/svg" xmlns:xlink="http://www.w3.org/1999/xlink">
<g id="graph0" class="graph" transform="scale(1 1) rotate(0) translate(4 939)">
<title>SE_hierarchy</title>
<polygon fill="white" stroke="transparent" points="-4,4 -4,-939 810,-939 810,4 -4,4"/>
<!-- module_1 -->
<g id="node1" class="node">
<title>module_1</title>
<g id="a_node1"><a xlink:href="SE.dot.svg" xlink:title="&lt;TABLE&gt;">
<polygon fill="#ffdead" stroke="transparent" points="8,-254 8,-279 116,-279 116,-254 8,-254"/>
<polygon fill="none" stroke="black" points="8,-254 8,-279 116,-279 116,-254 8,-254"/>
<text text-anchor="start" x="47" y="-262.8" font-family="Times,serif" font-size="14.00"> SE </text>
<polygon fill="#fff8dc" stroke="transparent" points="8,-229 8,-254 116,-254 116,-229 8,-229"/>
<polygon fill="none" stroke="black" points="8,-229 8,-254 116,-254 116,-229 8,-229"/>
<text text-anchor="start" x="13" y="-237.8" font-family="Times,serif" font-size="14.00">aes_invcipher</text>
<polygon fill="#fff8dc" stroke="transparent" points="8,-204 8,-229 116,-229 116,-204 8,-204"/>
<polygon fill="none" stroke="black" points="8,-204 8,-229 116,-229 116,-204 8,-204"/>
<text text-anchor="start" x="24" y="-212.8" font-family="Times,serif" font-size="14.00">aes_cipher</text>
<polygon fill="#fff8dc" stroke="transparent" points="8,-179 8,-204 116,-204 116,-179 8,-179"/>
<polygon fill="none" stroke="black" points="8,-179 8,-204 116,-204 116,-179 8,-179"/>
<text text-anchor="start" x="45" y="-187.8" font-family="Times,serif" font-size="14.00">prng</text>
<polygon fill="#fff8dc" stroke="transparent" points="8,-154 8,-179 116,-179 116,-154 8,-154"/>
<polygon fill="none" stroke="black" points="8,-154 8,-179 116,-179 116,-154 8,-154"/>
<text text-anchor="start" x="37" y="-162.8" font-family="Times,serif" font-size="14.00">prng_1</text>
<polygon fill="#fff8dc" stroke="transparent" points="8,-129 8,-154 116,-154 116,-129 8,-129"/>
<polygon fill="none" stroke="black" points="8,-129 8,-154 116,-154 116,-129 8,-129"/>
<text text-anchor="start" x="19.5" y="-137.8" font-family="Times,serif" font-size="14.00">seoperation</text>
</a>
</g>
</g>
<!-- module_2 -->
<g id="node2" class="node">
<title>module_2</title>
<g id="a_node2"><a xlink:href="MaxPeriodFibonacciLFSR_1.dot.svg" xlink:title="&lt;TABLE&gt;">
<polygon fill="#ffdead" stroke="transparent" points="168.5,-124 168.5,-149 387.5,-149 387.5,-124 168.5,-124"/>
<polygon fill="none" stroke="black" points="168.5,-124 168.5,-149 387.5,-149 387.5,-124 168.5,-124"/>
<text text-anchor="start" x="173.5" y="-132.8" font-family="Times,serif" font-size="14.00"> MaxPeriodFibonacciLFSR_1 </text>
</a>
</g>
</g>
<!-- module_1&#45;&gt;module_2 -->
<g id="edge1" class="edge">
<title>module_1:module_2&#45;&gt;module_2</title>
<path fill="none" stroke="black" d="M117,-166C143.59,-166 172.27,-162.05 197.88,-157.07"/>
<polygon fill="black" stroke="black" points="198.8,-160.45 207.91,-155.04 197.41,-153.59 198.8,-160.45"/>
</g>
<!-- module_3 -->
<g id="node3" class="node">
<title>module_3</title>
<g id="a_node3"><a xlink:href="AESDecrypt.dot.svg" xlink:title="&lt;TABLE&gt;">
<polygon fill="#ffdead" stroke="transparent" points="206.5,-576 206.5,-601 349.5,-601 349.5,-576 206.5,-576"/>
<polygon fill="none" stroke="black" points="206.5,-576 206.5,-601 349.5,-601 349.5,-576 206.5,-576"/>
<text text-anchor="start" x="229.5" y="-584.8" font-family="Times,serif" font-size="14.00"> AESDecrypt </text>
<polygon fill="#fff8dc" stroke="transparent" points="206.5,-551 206.5,-576 349.5,-576 349.5,-551 206.5,-551"/>
<polygon fill="none" stroke="black" points="206.5,-551 206.5,-576 349.5,-576 349.5,-551 206.5,-551"/>
<text text-anchor="start" x="211.5" y="-559.8" font-family="Times,serif" font-size="14.00">InvCipherModule1</text>
<polygon fill="#fff8dc" stroke="transparent" points="206.5,-526 206.5,-551 349.5,-551 349.5,-526 206.5,-526"/>
<polygon fill="none" stroke="black" points="206.5,-526 206.5,-551 349.5,-551 349.5,-526 206.5,-526"/>
<text text-anchor="start" x="211.5" y="-534.8" font-family="Times,serif" font-size="14.00">InvCipherModule2</text>
<polygon fill="#fff8dc" stroke="transparent" points="206.5,-501 206.5,-526 349.5,-526 349.5,-501 206.5,-501"/>
<polygon fill="none" stroke="black" points="206.5,-501 206.5,-526 349.5,-526 349.5,-501 206.5,-501"/>
<text text-anchor="start" x="211.5" y="-509.8" font-family="Times,serif" font-size="14.00">InvCipherModule3</text>
</a>
</g>
</g>
<!-- module_1&#45;&gt;module_3 -->
<g id="edge17" class="edge">
<title>module_1:module_3&#45;&gt;module_3</title>
<path fill="none" stroke="black" d="M117,-242C130.7,-242 205.16,-397.35 247.33,-487.75"/>
<polygon fill="black" stroke="black" points="244.16,-489.24 251.56,-496.82 250.51,-486.28 244.16,-489.24"/>
</g>
<!-- module_19 -->
<g id="node19" class="node">
<title>module_19</title>
<g id="a_node19"><a xlink:href="SEOperation.dot.svg" xlink:title="&lt;TABLE&gt;">
<polygon fill="#ffdead" stroke="transparent" points="222.5,-71 222.5,-96 333.5,-96 333.5,-71 222.5,-71"/>
<polygon fill="none" stroke="black" points="222.5,-71 222.5,-96 333.5,-96 333.5,-71 222.5,-71"/>
<text text-anchor="start" x="227.5" y="-79.8" font-family="Times,serif" font-size="14.00"> SEOperation </text>
<polygon fill="#fff8dc" stroke="transparent" points="222.5,-46 222.5,-71 333.5,-71 333.5,-46 222.5,-46"/>
<polygon fill="none" stroke="black" points="222.5,-46 222.5,-71 333.5,-71 333.5,-46 222.5,-46"/>
<text text-anchor="start" x="270.5" y="-54.8" font-family="Times,serif" font-size="14.00">fu</text>
<polygon fill="#fff8dc" stroke="transparent" points="222.5,-21 222.5,-46 333.5,-46 333.5,-21 222.5,-21"/>
<polygon fill="none" stroke="black" points="222.5,-21 222.5,-46 333.5,-46 333.5,-21 222.5,-21"/>
<text text-anchor="start" x="252.5" y="-29.8" font-family="Times,serif" font-size="14.00">decode</text>
</a>
</g>
</g>
<!-- module_1&#45;&gt;module_19 -->
<g id="edge20" class="edge">
<title>module_1:module_19&#45;&gt;module_19</title>
<path fill="none" stroke="black" d="M117,-141C140.56,-141 139.54,-121.68 160,-110 174.05,-101.98 189.61,-94.37 204.65,-87.6"/>
<polygon fill="black" stroke="black" points="206.21,-90.74 213.94,-83.49 203.38,-84.33 206.21,-90.74"/>
</g>
<!-- module_22 -->
<g id="node22" class="node">
<title>module_22</title>
<g id="a_node22"><a xlink:href="AESEncrypt.dot.svg" xlink:title="&lt;TABLE&gt;">
<polygon fill="#ffdead" stroke="transparent" points="221.5,-256 221.5,-281 333.5,-281 333.5,-256 221.5,-256"/>
<polygon fill="none" stroke="black" points="221.5,-256 221.5,-281 333.5,-281 333.5,-256 221.5,-256"/>
<text text-anchor="start" x="229" y="-264.8" font-family="Times,serif" font-size="14.00"> AESEncrypt </text>
<polygon fill="#fff8dc" stroke="transparent" points="221.5,-231 221.5,-256 333.5,-256 333.5,-231 221.5,-231"/>
<polygon fill="none" stroke="black" points="221.5,-231 221.5,-256 333.5,-256 333.5,-231 221.5,-231"/>
<text text-anchor="start" x="226.5" y="-239.8" font-family="Times,serif" font-size="14.00">CipherModule</text>
</a>
</g>
</g>
<!-- module_1&#45;&gt;module_22 -->
<g id="edge26" class="edge">
<title>module_1:module_22&#45;&gt;module_22</title>
<path fill="none" stroke="black" d="M117,-217C145.82,-217 176.74,-223.08 203.62,-230.44"/>
<polygon fill="black" stroke="black" points="202.76,-233.83 213.33,-233.2 204.67,-227.1 202.76,-233.83"/>
</g>
<!-- module_28 -->
<g id="node28" class="node">
<title>module_28</title>
<g id="a_node28"><a xlink:href="MaxPeriodFibonacciLFSR.dot.svg" xlink:title="&lt;TABLE&gt;">
<polygon fill="#ffdead" stroke="transparent" points="176.5,-178 176.5,-203 379.5,-203 379.5,-178 176.5,-178"/>
<polygon fill="none" stroke="black" points="176.5,-178 176.5,-203 379.5,-203 379.5,-178 176.5,-178"/>
<text text-anchor="start" x="181.5" y="-186.8" font-family="Times,serif" font-size="14.00"> MaxPeriodFibonacciLFSR </text>
</a>
</g>
</g>
<!-- module_1&#45;&gt;module_28 -->
<g id="edge27" class="edge">
<title>module_1:module_28&#45;&gt;module_28</title>
<path fill="none" stroke="black" d="M117,-191C130.26,-191 144.14,-191 157.94,-191"/>
<polygon fill="black" stroke="black" points="157.97,-194.5 167.97,-191 157.97,-187.5 157.97,-194.5"/>
</g>
<!-- module_4 -->
<g id="node4" class="node">
<title>module_4</title>
<g id="a_node4"><a xlink:href="InvCipher.dot.svg" xlink:title="&lt;TABLE&gt;">
<polygon fill="#ffdead" stroke="transparent" points="439,-469 439,-494 615,-494 615,-469 439,-469"/>
<polygon fill="none" stroke="black" points="439,-469 439,-494 615,-494 615,-469 439,-469"/>
<text text-anchor="start" x="487" y="-477.8" font-family="Times,serif" font-size="14.00"> InvCipher </text>
<polygon fill="#fff8dc" stroke="transparent" points="439,-444 439,-469 615,-469 615,-444 439,-444"/>
<polygon fill="none" stroke="black" points="439,-444 439,-469 615,-469 615,-444 439,-444"/>
<text text-anchor="start" x="450" y="-452.8" font-family="Times,serif" font-size="14.00">AddRoundKeyModule</text>
<polygon fill="#fff8dc" stroke="transparent" points="439,-419 439,-444 615,-444 615,-419 439,-419"/>
<polygon fill="none" stroke="black" points="439,-419 439,-444 615,-444 615,-419 439,-419"/>
<text text-anchor="start" x="444" y="-427.8" font-family="Times,serif" font-size="14.00">InvMixColumnsModule</text>
<polygon fill="#fff8dc" stroke="transparent" points="439,-394 439,-419 615,-419 615,-394 439,-394"/>
<polygon fill="none" stroke="black" points="439,-394 439,-419 615,-419 615,-394 439,-394"/>
<text text-anchor="start" x="452.5" y="-402.8" font-family="Times,serif" font-size="14.00">InvShiftRowsModule</text>
<polygon fill="#fff8dc" stroke="transparent" points="439,-369 439,-394 615,-394 615,-369 439,-369"/>
<polygon fill="none" stroke="black" points="439,-369 439,-394 615,-394 615,-369 439,-369"/>
<text text-anchor="start" x="454.5" y="-377.8" font-family="Times,serif" font-size="14.00">InvSubBytesModule</text>
</a>
</g>
</g>
<!-- module_3&#45;&gt;module_4 -->
<g id="edge6" class="edge">
<title>module_3:module_4&#45;&gt;module_4</title>
<path fill="none" stroke="black" d="M350.5,-513C374.54,-513 398.86,-506.66 421.43,-497.52"/>
<polygon fill="black" stroke="black" points="422.83,-500.73 430.66,-493.6 420.09,-494.29 422.83,-500.73"/>
</g>
<!-- module_9 -->
<g id="node9" class="node">
<title>module_9</title>
<g id="a_node9"><a xlink:href="InvCipher.dot.svg" xlink:title="&lt;TABLE&gt;">
<polygon fill="#ffdead" stroke="transparent" points="439,-656 439,-681 615,-681 615,-656 439,-656"/>
<polygon fill="none" stroke="black" points="439,-656 439,-681 615,-681 615,-656 439,-656"/>
<text text-anchor="start" x="487" y="-664.8" font-family="Times,serif" font-size="14.00"> InvCipher </text>
<polygon fill="#fff8dc" stroke="transparent" points="439,-631 439,-656 615,-656 615,-631 439,-631"/>
<polygon fill="none" stroke="black" points="439,-631 439,-656 615,-656 615,-631 439,-631"/>
<text text-anchor="start" x="450" y="-639.8" font-family="Times,serif" font-size="14.00">AddRoundKeyModule</text>
<polygon fill="#fff8dc" stroke="transparent" points="439,-606 439,-631 615,-631 615,-606 439,-606"/>
<polygon fill="none" stroke="black" points="439,-606 439,-631 615,-631 615,-606 439,-606"/>
<text text-anchor="start" x="444" y="-614.8" font-family="Times,serif" font-size="14.00">InvMixColumnsModule</text>
<polygon fill="#fff8dc" stroke="transparent" points="439,-581 439,-606 615,-606 615,-581 439,-581"/>
<polygon fill="none" stroke="black" points="439,-581 439,-606 615,-606 615,-581 439,-581"/>
<text text-anchor="start" x="452.5" y="-589.8" font-family="Times,serif" font-size="14.00">InvShiftRowsModule</text>
<polygon fill="#fff8dc" stroke="transparent" points="439,-556 439,-581 615,-581 615,-556 439,-556"/>
<polygon fill="none" stroke="black" points="439,-556 439,-581 615,-581 615,-556 439,-556"/>
<text text-anchor="start" x="454.5" y="-564.8" font-family="Times,serif" font-size="14.00">InvSubBytesModule</text>
</a>
</g>
</g>
<!-- module_3&#45;&gt;module_9 -->
<g id="edge11" class="edge">
<title>module_3:module_9&#45;&gt;module_9</title>
<path fill="none" stroke="black" d="M350.5,-538C374.54,-538 398.86,-544.34 421.43,-553.48"/>
<polygon fill="black" stroke="black" points="420.09,-556.71 430.66,-557.4 422.83,-550.27 420.09,-556.71"/>
</g>
<!-- module_14 -->
<g id="node14" class="node">
<title>module_14</title>
<g id="a_node14"><a xlink:href="InvCipher.dot.svg" xlink:title="&lt;TABLE&gt;">
<polygon fill="#ffdead" stroke="transparent" points="439,-872 439,-897 615,-897 615,-872 439,-872"/>
<polygon fill="none" stroke="black" points="439,-872 439,-897 615,-897 615,-872 439,-872"/>
<text text-anchor="start" x="487" y="-880.8" font-family="Times,serif" font-size="14.00"> InvCipher </text>
<polygon fill="#fff8dc" stroke="transparent" points="439,-847 439,-872 615,-872 615,-847 439,-847"/>
<polygon fill="none" stroke="black" points="439,-847 439,-872 615,-872 615,-847 439,-847"/>
<text text-anchor="start" x="450" y="-855.8" font-family="Times,serif" font-size="14.00">AddRoundKeyModule</text>
<polygon fill="#fff8dc" stroke="transparent" points="439,-822 439,-847 615,-847 615,-822 439,-822"/>
<polygon fill="none" stroke="black" points="439,-822 439,-847 615,-847 615,-822 439,-822"/>
<text text-anchor="start" x="444" y="-830.8" font-family="Times,serif" font-size="14.00">InvMixColumnsModule</text>
<polygon fill="#fff8dc" stroke="transparent" points="439,-797 439,-822 615,-822 615,-797 439,-797"/>
<polygon fill="none" stroke="black" points="439,-797 439,-822 615,-822 615,-797 439,-797"/>
<text text-anchor="start" x="452.5" y="-805.8" font-family="Times,serif" font-size="14.00">InvShiftRowsModule</text>
<polygon fill="#fff8dc" stroke="transparent" points="439,-772 439,-797 615,-797 615,-772 439,-772"/>
<polygon fill="none" stroke="black" points="439,-772 439,-797 615,-797 615,-772 439,-772"/>
<text text-anchor="start" x="454.5" y="-780.8" font-family="Times,serif" font-size="14.00">InvSubBytesModule</text>
</a>
</g>
</g>
<!-- module_3&#45;&gt;module_14 -->
<g id="edge16" class="edge">
<title>module_3:module_14&#45;&gt;module_14</title>
<path fill="none" stroke="black" d="M350.5,-564C418.84,-564 393.92,-637.6 431,-695 444.73,-716.25 459.97,-739.05 474.16,-759.95"/>
<polygon fill="black" stroke="black" points="471.44,-762.17 479.96,-768.47 477.23,-758.23 471.44,-762.17"/>
</g>
<!-- module_5 -->
<g id="node5" class="node">
<title>module_5</title>
<g id="a_node5"><a xlink:href="InvShiftRows.dot.svg" xlink:title="&lt;TABLE&gt;">
<polygon fill="#ffdead" stroke="transparent" points="675.5,-364 675.5,-389 790.5,-389 790.5,-364 675.5,-364"/>
<polygon fill="none" stroke="black" points="675.5,-364 675.5,-389 790.5,-389 790.5,-364 675.5,-364"/>
<text text-anchor="start" x="680.5" y="-372.8" font-family="Times,serif" font-size="14.00"> InvShiftRows </text>
</a>
</g>
</g>
<!-- module_4&#45;&gt;module_5 -->
<g id="edge2" class="edge">
<title>module_4:module_5&#45;&gt;module_5</title>
<path fill="none" stroke="black" d="M616,-406C634.67,-406 654.53,-402.39 672.43,-397.72"/>
<polygon fill="black" stroke="black" points="673.44,-401.07 682.15,-395.04 671.58,-394.33 673.44,-401.07"/>
</g>
<!-- module_6 -->
<g id="node6" class="node">
<title>module_6</title>
<g id="a_node6"><a xlink:href="InvSubBytes.dot.svg" xlink:title="&lt;TABLE&gt;">
<polygon fill="#ffdead" stroke="transparent" points="677.5,-310 677.5,-335 787.5,-335 787.5,-310 677.5,-310"/>
<polygon fill="none" stroke="black" points="677.5,-310 677.5,-335 787.5,-335 787.5,-310 677.5,-310"/>
<text text-anchor="start" x="682.5" y="-318.8" font-family="Times,serif" font-size="14.00"> InvSubBytes </text>
</a>
</g>
</g>
<!-- module_4&#45;&gt;module_6 -->
<g id="edge3" class="edge">
<title>module_4:module_6&#45;&gt;module_6</title>
<path fill="none" stroke="black" d="M616,-381C639.56,-381 638.22,-361.1 659,-350 662.12,-348.34 665.36,-346.73 668.66,-345.18"/>
<polygon fill="black" stroke="black" points="670.38,-348.25 678.11,-341 667.55,-341.85 670.38,-348.25"/>
</g>
<!-- module_7 -->
<g id="node7" class="node">
<title>module_7</title>
<g id="a_node7"><a xlink:href="AddRoundKey.dot.svg" xlink:title="&lt;TABLE&gt;">
<polygon fill="#ffdead" stroke="transparent" points="673.5,-472 673.5,-497 792.5,-497 792.5,-472 673.5,-472"/>
<polygon fill="none" stroke="black" points="673.5,-472 673.5,-497 792.5,-497 792.5,-472 673.5,-472"/>
<text text-anchor="start" x="678.5" y="-480.8" font-family="Times,serif" font-size="14.00"> AddRoundKey </text>
</a>
</g>
</g>
<!-- module_4&#45;&gt;module_7 -->
<g id="edge4" class="edge">
<title>module_4:module_7&#45;&gt;module_7</title>
<path fill="none" stroke="black" d="M616,-457C633.77,-457 652.65,-460.17 669.88,-464.37"/>
<polygon fill="black" stroke="black" points="669.26,-467.83 679.82,-466.95 671.02,-461.05 669.26,-467.83"/>
</g>
<!-- module_8 -->
<g id="node8" class="node">
<title>module_8</title>
<g id="a_node8"><a xlink:href="InvMixColumns.dot.svg" xlink:title="&lt;TABLE&gt;">
<polygon fill="#ffdead" stroke="transparent" points="667.5,-418 667.5,-443 798.5,-443 798.5,-418 667.5,-418"/>
<polygon fill="none" stroke="black" points="667.5,-418 667.5,-443 798.5,-443 798.5,-418 667.5,-418"/>
<text text-anchor="start" x="672.5" y="-426.8" font-family="Times,serif" font-size="14.00"> InvMixColumns </text>
</a>
</g>
</g>
<!-- module_4&#45;&gt;module_8 -->
<g id="edge5" class="edge">
<title>module_4:module_8&#45;&gt;module_8</title>
<path fill="none" stroke="black" d="M616,-431C626.59,-431 637.73,-431 648.74,-431"/>
<polygon fill="black" stroke="black" points="648.8,-434.5 658.8,-431 648.8,-427.5 648.8,-434.5"/>
</g>
<!-- module_10 -->
<g id="node10" class="node">
<title>module_10</title>
<g id="a_node10"><a xlink:href="InvShiftRows.dot.svg" xlink:title="&lt;TABLE&gt;">
<polygon fill="#ffdead" stroke="transparent" points="675.5,-580 675.5,-605 790.5,-605 790.5,-580 675.5,-580"/>
<polygon fill="none" stroke="black" points="675.5,-580 675.5,-605 790.5,-605 790.5,-580 675.5,-580"/>
<text text-anchor="start" x="680.5" y="-588.8" font-family="Times,serif" font-size="14.00"> InvShiftRows </text>
</a>
</g>
</g>
<!-- module_9&#45;&gt;module_10 -->
<g id="edge7" class="edge">
<title>module_9:module_10&#45;&gt;module_10</title>
<path fill="none" stroke="black" d="M616,-593C629.1,-593 643.04,-593 656.54,-593"/>
<polygon fill="black" stroke="black" points="656.75,-596.5 666.75,-593 656.75,-589.5 656.75,-596.5"/>
</g>
<!-- module_11 -->
<g id="node11" class="node">
<title>module_11</title>
<g id="a_node11"><a xlink:href="InvSubBytes.dot.svg" xlink:title="&lt;TABLE&gt;">
<polygon fill="#ffdead" stroke="transparent" points="677.5,-526 677.5,-551 787.5,-551 787.5,-526 677.5,-526"/>
<polygon fill="none" stroke="black" points="677.5,-526 677.5,-551 787.5,-551 787.5,-526 677.5,-526"/>
<text text-anchor="start" x="682.5" y="-534.8" font-family="Times,serif" font-size="14.00"> InvSubBytes </text>
</a>
</g>
</g>
<!-- module_9&#45;&gt;module_11 -->
<g id="edge8" class="edge">
<title>module_9:module_11&#45;&gt;module_11</title>
<path fill="none" stroke="black" d="M616,-568C634.67,-568 654.53,-564.39 672.43,-559.72"/>
<polygon fill="black" stroke="black" points="673.44,-563.07 682.15,-557.04 671.58,-556.33 673.44,-563.07"/>
</g>
<!-- module_12 -->
<g id="node12" class="node">
<title>module_12</title>
<g id="a_node12"><a xlink:href="AddRoundKey.dot.svg" xlink:title="&lt;TABLE&gt;">
<polygon fill="#ffdead" stroke="transparent" points="673.5,-688 673.5,-713 792.5,-713 792.5,-688 673.5,-688"/>
<polygon fill="none" stroke="black" points="673.5,-688 673.5,-713 792.5,-713 792.5,-688 673.5,-688"/>
<text text-anchor="start" x="678.5" y="-696.8" font-family="Times,serif" font-size="14.00"> AddRoundKey </text>
</a>
</g>
</g>
<!-- module_9&#45;&gt;module_12 -->
<g id="edge9" class="edge">
<title>module_9:module_12&#45;&gt;module_12</title>
<path fill="none" stroke="black" d="M616,-644C639.3,-644 638.36,-663.18 659,-674 662.22,-675.69 665.58,-677.32 669,-678.9"/>
<polygon fill="black" stroke="black" points="667.59,-682.1 678.16,-682.91 670.4,-675.69 667.59,-682.1"/>
</g>
<!-- module_13 -->
<g id="node13" class="node">
<title>module_13</title>
<g id="a_node13"><a xlink:href="InvMixColumns.dot.svg" xlink:title="&lt;TABLE&gt;">
<polygon fill="#ffdead" stroke="transparent" points="667.5,-634 667.5,-659 798.5,-659 798.5,-634 667.5,-634"/>
<polygon fill="none" stroke="black" points="667.5,-634 667.5,-659 798.5,-659 798.5,-634 667.5,-634"/>
<text text-anchor="start" x="672.5" y="-642.8" font-family="Times,serif" font-size="14.00"> InvMixColumns </text>
</a>
</g>
</g>
<!-- module_9&#45;&gt;module_13 -->
<g id="edge10" class="edge">
<title>module_9:module_13&#45;&gt;module_13</title>
<path fill="none" stroke="black" d="M616,-618C634.67,-618 654.53,-621.61 672.43,-626.28"/>
<polygon fill="black" stroke="black" points="671.58,-629.67 682.15,-628.96 673.44,-622.93 671.58,-629.67"/>
</g>
<!-- module_15 -->
<g id="node15" class="node">
<title>module_15</title>
<g id="a_node15"><a xlink:href="InvShiftRows.dot.svg" xlink:title="&lt;TABLE&gt;">
<polygon fill="#ffdead" stroke="transparent" points="675.5,-796 675.5,-821 790.5,-821 790.5,-796 675.5,-796"/>
<polygon fill="none" stroke="black" points="675.5,-796 675.5,-821 790.5,-821 790.5,-796 675.5,-796"/>
<text text-anchor="start" x="680.5" y="-804.8" font-family="Times,serif" font-size="14.00"> InvShiftRows </text>
</a>
</g>
</g>
<!-- module_14&#45;&gt;module_15 -->
<g id="edge12" class="edge">
<title>module_14:module_15&#45;&gt;module_15</title>
<path fill="none" stroke="black" d="M616,-809C629.1,-809 643.04,-809 656.54,-809"/>
<polygon fill="black" stroke="black" points="656.75,-812.5 666.75,-809 656.75,-805.5 656.75,-812.5"/>
</g>
<!-- module_16 -->
<g id="node16" class="node">
<title>module_16</title>
<g id="a_node16"><a xlink:href="InvSubBytes.dot.svg" xlink:title="&lt;TABLE&gt;">
<polygon fill="#ffdead" stroke="transparent" points="677.5,-742 677.5,-767 787.5,-767 787.5,-742 677.5,-742"/>
<polygon fill="none" stroke="black" points="677.5,-742 677.5,-767 787.5,-767 787.5,-742 677.5,-742"/>
<text text-anchor="start" x="682.5" y="-750.8" font-family="Times,serif" font-size="14.00"> InvSubBytes </text>
</a>
</g>
</g>
<!-- module_14&#45;&gt;module_16 -->
<g id="edge13" class="edge">
<title>module_14:module_16&#45;&gt;module_16</title>
<path fill="none" stroke="black" d="M616,-784C634.67,-784 654.53,-780.39 672.43,-775.72"/>
<polygon fill="black" stroke="black" points="673.44,-779.07 682.15,-773.04 671.58,-772.33 673.44,-779.07"/>
</g>
<!-- module_17 -->
<g id="node17" class="node">
<title>module_17</title>
<g id="a_node17"><a xlink:href="AddRoundKey.dot.svg" xlink:title="&lt;TABLE&gt;">
<polygon fill="#ffdead" stroke="transparent" points="673.5,-904 673.5,-929 792.5,-929 792.5,-904 673.5,-904"/>
<polygon fill="none" stroke="black" points="673.5,-904 673.5,-929 792.5,-929 792.5,-904 673.5,-904"/>
<text text-anchor="start" x="678.5" y="-912.8" font-family="Times,serif" font-size="14.00"> AddRoundKey </text>
</a>
</g>
</g>
<!-- module_14&#45;&gt;module_17 -->
<g id="edge14" class="edge">
<title>module_14:module_17&#45;&gt;module_17</title>
<path fill="none" stroke="black" d="M616,-860C639.3,-860 638.36,-879.18 659,-890 662.22,-891.69 665.58,-893.32 669,-894.9"/>
<polygon fill="black" stroke="black" points="667.59,-898.1 678.16,-898.91 670.4,-891.69 667.59,-898.1"/>
</g>
<!-- module_18 -->
<g id="node18" class="node">
<title>module_18</title>
<g id="a_node18"><a xlink:href="InvMixColumns.dot.svg" xlink:title="&lt;TABLE&gt;">
<polygon fill="#ffdead" stroke="transparent" points="667.5,-850 667.5,-875 798.5,-875 798.5,-850 667.5,-850"/>
<polygon fill="none" stroke="black" points="667.5,-850 667.5,-875 798.5,-875 798.5,-850 667.5,-850"/>
<text text-anchor="start" x="672.5" y="-858.8" font-family="Times,serif" font-size="14.00"> InvMixColumns </text>
</a>
</g>
</g>
<!-- module_14&#45;&gt;module_18 -->
<g id="edge15" class="edge">
<title>module_14:module_18&#45;&gt;module_18</title>
<path fill="none" stroke="black" d="M616,-834C634.67,-834 654.53,-837.61 672.43,-842.28"/>
<polygon fill="black" stroke="black" points="671.58,-845.67 682.15,-844.96 673.44,-838.93 671.58,-845.67"/>
</g>
<!-- module_20 -->
<g id="node20" class="node">
<title>module_20</title>
<g id="a_node20"><a xlink:href="SEControl.dot.svg" xlink:title="&lt;TABLE&gt;">
<polygon fill="#ffdead" stroke="transparent" points="481,-5 481,-30 574,-30 574,-5 481,-5"/>
<polygon fill="none" stroke="black" points="481,-5 481,-30 574,-30 574,-5 481,-5"/>
<text text-anchor="start" x="486" y="-13.8" font-family="Times,serif" font-size="14.00"> SEControl </text>
</a>
</g>
</g>
<!-- module_19&#45;&gt;module_20 -->
<g id="edge18" class="edge">
<title>module_19:module_20&#45;&gt;module_20</title>
<path fill="none" stroke="black" d="M334.5,-33C377.18,-33 425.04,-29.25 462.24,-25.5"/>
<polygon fill="black" stroke="black" points="462.85,-28.96 472.43,-24.45 462.13,-22 462.85,-28.96"/>
</g>
<!-- module_21 -->
<g id="node21" class="node">
<title>module_21</title>
<g id="a_node21"><a xlink:href="FU.dot.svg" xlink:title="&lt;TABLE&gt;">
<polygon fill="#ffdead" stroke="transparent" points="507,-59 507,-84 548,-84 548,-59 507,-59"/>
<polygon fill="none" stroke="black" points="507,-59 507,-84 548,-84 548,-59 507,-59"/>
<text text-anchor="start" x="512" y="-67.8" font-family="Times,serif" font-size="14.00"> FU </text>
</a>
</g>
</g>
<!-- module_19&#45;&gt;module_21 -->
<g id="edge19" class="edge">
<title>module_19:module_21&#45;&gt;module_21</title>
<path fill="none" stroke="black" d="M334.5,-58C387.98,-58 449.63,-63.5 488.21,-67.6"/>
<polygon fill="black" stroke="black" points="488.14,-71.11 498.46,-68.72 488.89,-64.16 488.14,-71.11"/>
</g>
<!-- module_23 -->
<g id="node23" class="node">
<title>module_23</title>
<g id="a_node23"><a xlink:href="Cipher.dot.svg" xlink:title="&lt;TABLE&gt;">
<polygon fill="#ffdead" stroke="transparent" points="445,-253 445,-278 609,-278 609,-253 445,-253"/>
<polygon fill="none" stroke="black" points="445,-253 445,-278 609,-278 609,-253 445,-253"/>
<text text-anchor="start" x="498" y="-261.8" font-family="Times,serif" font-size="14.00"> Cipher </text>
<polygon fill="#fff8dc" stroke="transparent" points="445,-228 445,-253 609,-253 609,-228 445,-228"/>
<polygon fill="none" stroke="black" points="445,-228 445,-253 609,-253 609,-228 445,-228"/>
<text text-anchor="start" x="450" y="-236.8" font-family="Times,serif" font-size="14.00">AddRoundKeyModule</text>
<polygon fill="#fff8dc" stroke="transparent" points="445,-203 445,-228 609,-228 609,-203 445,-203"/>
<polygon fill="none" stroke="black" points="445,-203 445,-228 609,-228 609,-203 445,-203"/>
<text text-anchor="start" x="455.5" y="-211.8" font-family="Times,serif" font-size="14.00">MixColumnsModule</text>
<polygon fill="#fff8dc" stroke="transparent" points="445,-178 445,-203 609,-203 609,-178 445,-178"/>
<polygon fill="none" stroke="black" points="445,-178 445,-203 609,-203 609,-178 445,-178"/>
<text text-anchor="start" x="463.5" y="-186.8" font-family="Times,serif" font-size="14.00">ShiftRowsModule</text>
<polygon fill="#fff8dc" stroke="transparent" points="445,-153 445,-178 609,-178 609,-153 445,-153"/>
<polygon fill="none" stroke="black" points="445,-153 445,-178 609,-178 609,-153 445,-153"/>
<text text-anchor="start" x="466" y="-161.8" font-family="Times,serif" font-size="14.00">SubBytesModule</text>
</a>
</g>
</g>
<!-- module_22&#45;&gt;module_23 -->
<g id="edge25" class="edge">
<title>module_22:module_23&#45;&gt;module_23</title>
<path fill="none" stroke="black" d="M334.5,-243C364.67,-243 397.24,-239.67 426.83,-235.36"/>
<polygon fill="black" stroke="black" points="427.37,-238.82 436.74,-233.86 426.33,-231.89 427.37,-238.82"/>
</g>
<!-- module_24 -->
<g id="node24" class="node">
<title>module_24</title>
<g id="a_node24"><a xlink:href="MixColumns.dot.svg" xlink:title="&lt;TABLE&gt;">
<polygon fill="#ffdead" stroke="transparent" points="678.5,-202 678.5,-227 787.5,-227 787.5,-202 678.5,-202"/>
<polygon fill="none" stroke="black" points="678.5,-202 678.5,-227 787.5,-227 787.5,-202 678.5,-202"/>
<text text-anchor="start" x="683.5" y="-210.8" font-family="Times,serif" font-size="14.00"> MixColumns </text>
</a>
</g>
</g>
<!-- module_23&#45;&gt;module_24 -->
<g id="edge21" class="edge">
<title>module_23:module_24&#45;&gt;module_24</title>
<path fill="none" stroke="black" d="M610,-215C626.07,-215 643.34,-215 659.66,-215"/>
<polygon fill="black" stroke="black" points="659.69,-218.5 669.69,-215 659.69,-211.5 659.69,-218.5"/>
</g>
<!-- module_25 -->
<g id="node25" class="node">
<title>module_25</title>
<g id="a_node25"><a xlink:href="ShiftRows.dot.svg" xlink:title="&lt;TABLE&gt;">
<polygon fill="#ffdead" stroke="transparent" points="686.5,-148 686.5,-173 778.5,-173 778.5,-148 686.5,-148"/>
<polygon fill="none" stroke="black" points="686.5,-148 686.5,-173 778.5,-173 778.5,-148 686.5,-148"/>
<text text-anchor="start" x="691.5" y="-156.8" font-family="Times,serif" font-size="14.00"> ShiftRows </text>
</a>
</g>
</g>
<!-- module_23&#45;&gt;module_25 -->
<g id="edge22" class="edge">
<title>module_23:module_25&#45;&gt;module_25</title>
<path fill="none" stroke="black" d="M610,-190C629.76,-190 650.85,-186.33 669.81,-181.59"/>
<polygon fill="black" stroke="black" points="670.74,-184.97 679.52,-179.04 668.95,-178.2 670.74,-184.97"/>
</g>
<!-- module_26 -->
<g id="node26" class="node">
<title>module_26</title>
<g id="a_node26"><a xlink:href="AddRoundKey.dot.svg" xlink:title="&lt;TABLE&gt;">
<polygon fill="#ffdead" stroke="transparent" points="673.5,-256 673.5,-281 792.5,-281 792.5,-256 673.5,-256"/>
<polygon fill="none" stroke="black" points="673.5,-256 673.5,-281 792.5,-281 792.5,-256 673.5,-256"/>
<text text-anchor="start" x="678.5" y="-264.8" font-family="Times,serif" font-size="14.00"> AddRoundKey </text>
</a>
</g>
</g>
<!-- module_23&#45;&gt;module_26 -->
<g id="edge23" class="edge">
<title>module_23:module_26&#45;&gt;module_26</title>
<path fill="none" stroke="black" d="M610,-241C628.81,-241 648.85,-244.23 667.12,-248.49"/>
<polygon fill="black" stroke="black" points="666.52,-251.95 677.07,-250.95 668.2,-245.15 666.52,-251.95"/>
</g>
<!-- module_27 -->
<g id="node27" class="node">
<title>module_27</title>
<g id="a_node27"><a xlink:href="SubBytes.dot.svg" xlink:title="&lt;TABLE&gt;">
<polygon fill="#ffdead" stroke="transparent" points="688.5,-94 688.5,-119 776.5,-119 776.5,-94 688.5,-94"/>
<polygon fill="none" stroke="black" points="688.5,-94 688.5,-119 776.5,-119 776.5,-94 688.5,-94"/>
<text text-anchor="start" x="693.5" y="-102.8" font-family="Times,serif" font-size="14.00"> SubBytes </text>
</a>
</g>
</g>
<!-- module_23&#45;&gt;module_27 -->
<g id="edge24" class="edge">
<title>module_23:module_27&#45;&gt;module_27</title>
<path fill="none" stroke="black" d="M610,-165C635.77,-165 635.91,-145.45 659,-134 662.79,-132.12 666.75,-130.29 670.77,-128.54"/>
<polygon fill="black" stroke="black" points="672.36,-131.67 680.23,-124.57 669.65,-125.21 672.36,-131.67"/>
</g>
</g>
</svg>
