<?xml version="1.0" encoding="UTF-8" standalone="no"?>
<?xml-stylesheet href="styles.css" type="text/css"?>
<!DOCTYPE svg PUBLIC "-//W3C//DTD SVG 1.1//EN"
 "http://www.w3.org/Graphics/SVG/1.1/DTD/svg11.dtd">
<!-- Generated by graphviz version 2.43.0 (0)
 -->
<!-- Title: SEOperation Pages: 1 -->
<svg width="1361pt" height="574pt"
 viewBox="0.00 0.00 1361.00 574.00" xmlns="http://www.w3.org/2000/svg" xmlns:xlink="http://www.w3.org/1999/xlink">
<g id="graph0" class="graph" transform="scale(1 1) rotate(0) translate(4 570)">
<title>SEOperation</title>
<polygon fill="white" stroke="transparent" points="-4,4 -4,-570 1357,-570 1357,4 -4,4"/>
<g id="clust1" class="cluster">
<title>cluster_SEOperation</title>
<polygon fill="#fff8dc" stroke="black" points="8,-8 8,-558 1345,-558 1345,-8 8,-8"/>
<text text-anchor="middle" x="676.5" y="-542.8" font-family="Times,serif" font-size="14.00">SEOperation</text>
</g>
<g id="clust2" class="cluster">
<title>cluster_SEOperation_fu</title>
<g id="a_clust2"><a xlink:href="FU.dot.svg" xlink:title="fu">
<polygon fill="#add8e6" stroke="black" points="525,-97 525,-442 654,-442 654,-97 525,-97"/>
<text text-anchor="middle" x="589.5" y="-426.8" font-family="Times,serif" font-size="14.00">fu</text>
</a>
</g>
</g>
<g id="clust3" class="cluster">
<title>cluster_SEOperation_decode</title>
<g id="a_clust3"><a xlink:href="SEControl.dot.svg" xlink:title="decode">
<polygon fill="#add8e6" stroke="black" points="179,-84 179,-429 308,-429 308,-84 179,-84"/>
<text text-anchor="middle" x="243.5" y="-413.8" font-family="Times,serif" font-size="14.00">decode</text>
</a>
</g>
</g>
<!-- cluster_SEOperation_in_op2_is_a_byte -->
<g id="node1" class="node">
<title>cluster_SEOperation_in_op2_is_a_byte</title>
<polygon fill="#cccccc" stroke="black" points="151,-52 16,-52 16,-16 151,-16 151,-52"/>
<text text-anchor="middle" x="83.5" y="-30.3" font-family="Times,serif" font-size="14.00">in_op2_is_a_byte</text>
</g>
<!-- op_and_958 -->
<g id="node23" class="node">
<title>op_and_958</title>
<polygon fill="#d8bfd8" stroke="transparent" points="197.5,-20 197.5,-70 289.5,-70 289.5,-20 197.5,-20"/>
<polygon fill="none" stroke="black" points="197.5,-45 197.5,-70 220.5,-70 220.5,-45 197.5,-45"/>
<text text-anchor="start" x="202.5" y="-53.8" font-family="Times,serif" font-size="14.00">●</text>
<polygon fill="none" stroke="black" points="220.5,-20 220.5,-70 266.5,-70 266.5,-20 220.5,-20"/>
<text text-anchor="start" x="225.5" y="-41.3" font-family="Times,serif" font-size="14.00"> and </text>
<polygon fill="none" stroke="black" points="266.5,-20 266.5,-70 289.5,-70 289.5,-20 266.5,-20"/>
<text text-anchor="start" x="271.5" y="-41.3" font-family="Times,serif" font-size="14.00">●</text>
<polygon fill="none" stroke="black" points="197.5,-20 197.5,-45 220.5,-45 220.5,-20 197.5,-20"/>
<text text-anchor="start" x="202.5" y="-28.8" font-family="Times,serif" font-size="14.00">●</text>
</g>
<!-- cluster_SEOperation_in_op2_is_a_byte&#45;&gt;op_and_958 -->
<g id="edge9" class="edge">
<title>cluster_SEOperation_in_op2_is_a_byte&#45;&gt;op_and_958:in2</title>
<path fill="none" stroke="black" d="M151.12,-32.42C162.67,-32.23 174.72,-32.08 186.38,-32.03"/>
<polygon fill="black" stroke="black" points="186.51,-35.53 196.5,-32 186.49,-28.53 186.51,-35.53"/>
</g>
<!-- cluster_SEOperation_in_op2_input -->
<g id="node2" class="node">
<title>cluster_SEOperation_in_op2_input</title>
<polygon fill="#cccccc" stroke="black" points="297,-527 190,-527 190,-491 297,-491 297,-527"/>
<text text-anchor="middle" x="243.5" y="-505.3" font-family="Times,serif" font-size="14.00">in_op2_input</text>
</g>
<!-- op_bits_962 -->
<g id="node29" class="node">
<title>op_bits_962</title>
<polygon fill="#d8bfd8" stroke="transparent" points="344,-459 344,-509 489,-509 489,-459 344,-459"/>
<polygon fill="none" stroke="black" points="344.5,-484 344.5,-509 419.5,-509 419.5,-484 344.5,-484"/>
<text text-anchor="start" x="375.5" y="-492.8" font-family="Times,serif" font-size="14.00">●</text>
<polygon fill="none" stroke="black" points="419.5,-459 419.5,-509 466.5,-509 466.5,-459 419.5,-459"/>
<text text-anchor="start" x="424.5" y="-480.3" font-family="Times,serif" font-size="14.00"> bits </text>
<polygon fill="none" stroke="black" points="466.5,-459 466.5,-509 489.5,-509 489.5,-459 466.5,-459"/>
<text text-anchor="start" x="471.5" y="-480.3" font-family="Times,serif" font-size="14.00">●</text>
<polygon fill="none" stroke="black" points="344.5,-459 344.5,-484 419.5,-484 419.5,-459 344.5,-459"/>
<text text-anchor="start" x="349.5" y="-467.8" font-family="Times,serif" font-size="14.00">(127, 64)</text>
</g>
<!-- cluster_SEOperation_in_op2_input&#45;&gt;op_bits_962 -->
<g id="edge10" class="edge">
<title>cluster_SEOperation_in_op2_input&#45;&gt;op_bits_962:in1</title>
<path fill="none" stroke="black" d="M297.02,-500.25C308.72,-498.81 321.26,-497.63 333.41,-497.19"/>
<polygon fill="black" stroke="black" points="333.57,-500.69 343.5,-497 333.44,-493.69 333.57,-500.69"/>
</g>
<!-- cluster_SEOperation_in_op1_is_a_byte -->
<g id="node3" class="node">
<title>cluster_SEOperation_in_op1_is_a_byte</title>
<polygon fill="#cccccc" stroke="black" points="151,-106 16,-106 16,-70 151,-70 151,-106"/>
<text text-anchor="middle" x="83.5" y="-84.3" font-family="Times,serif" font-size="14.00">in_op1_is_a_byte</text>
</g>
<!-- cluster_SEOperation_in_op1_is_a_byte&#45;&gt;op_and_958 -->
<g id="edge15" class="edge">
<title>cluster_SEOperation_in_op1_is_a_byte&#45;&gt;op_and_958:in1</title>
<path fill="none" stroke="black" d="M130.36,-69.94C147.38,-64.53 167.24,-59.68 186.5,-58.35"/>
<polygon fill="black" stroke="black" points="186.63,-61.85 196.5,-58 186.38,-54.86 186.63,-61.85"/>
</g>
<!-- cluster_SEOperation_in_op1_input -->
<g id="node4" class="node">
<title>cluster_SEOperation_in_op1_input</title>
<polygon fill="#cccccc" stroke="black" points="297,-473 190,-473 190,-437 297,-437 297,-473"/>
<text text-anchor="middle" x="243.5" y="-451.3" font-family="Times,serif" font-size="14.00">in_op1_input</text>
</g>
<!-- op_bits_963 -->
<g id="node30" class="node">
<title>op_bits_963</title>
<polygon fill="#d8bfd8" stroke="transparent" points="344,-337 344,-387 489,-387 489,-337 344,-337"/>
<polygon fill="none" stroke="black" points="344.5,-362 344.5,-387 419.5,-387 419.5,-362 344.5,-362"/>
<text text-anchor="start" x="375.5" y="-370.8" font-family="Times,serif" font-size="14.00">●</text>
<polygon fill="none" stroke="black" points="419.5,-337 419.5,-387 466.5,-387 466.5,-337 419.5,-337"/>
<text text-anchor="start" x="424.5" y="-358.3" font-family="Times,serif" font-size="14.00"> bits </text>
<polygon fill="none" stroke="black" points="466.5,-337 466.5,-387 489.5,-387 489.5,-337 466.5,-337"/>
<text text-anchor="start" x="471.5" y="-358.3" font-family="Times,serif" font-size="14.00">●</text>
<polygon fill="none" stroke="black" points="344.5,-337 344.5,-362 419.5,-362 419.5,-337 344.5,-337"/>
<text text-anchor="start" x="349.5" y="-345.8" font-family="Times,serif" font-size="14.00">(127, 64)</text>
</g>
<!-- cluster_SEOperation_in_op1_input&#45;&gt;op_bits_963 -->
<g id="edge13" class="edge">
<title>cluster_SEOperation_in_op1_input&#45;&gt;op_bits_963:in1</title>
<path fill="none" stroke="black" d="M297.02,-440.19C300.92,-438.09 304.64,-435.71 308,-433 328.24,-416.72 317.59,-385.59 333.38,-377.15"/>
<polygon fill="black" stroke="black" points="334.45,-380.5 343.5,-375 332.99,-373.66 334.45,-380.5"/>
</g>
<!-- cluster_SEOperation_in_inst -->
<g id="node5" class="node">
<title>cluster_SEOperation_in_inst</title>
<polygon fill="#cccccc" stroke="black" points="115.5,-398 51.5,-398 51.5,-362 115.5,-362 115.5,-398"/>
<text text-anchor="middle" x="83.5" y="-376.3" font-family="Times,serif" font-size="14.00">in_inst</text>
</g>
<!-- cluster_SEOperation_decode_in_inst -->
<g id="node16" class="node">
<title>cluster_SEOperation_decode_in_inst</title>
<polygon fill="#cccccc" stroke="black" points="275.5,-398 211.5,-398 211.5,-362 275.5,-362 275.5,-398"/>
<text text-anchor="middle" x="243.5" y="-376.3" font-family="Times,serif" font-size="14.00">in_inst</text>
</g>
<!-- cluster_SEOperation_in_inst&#45;&gt;cluster_SEOperation_decode_in_inst -->
<g id="edge18" class="edge">
<title>cluster_SEOperation_in_inst&#45;&gt;cluster_SEOperation_decode_in_inst</title>
<path fill="none" stroke="black" d="M115.72,-380C140.17,-380 174.41,-380 201.14,-380"/>
<polygon fill="black" stroke="black" points="201.35,-383.5 211.35,-380 201.35,-376.5 201.35,-383.5"/>
</g>
<!-- cluster_SEOperation_ctrl_in_valid -->
<g id="node6" class="node">
<title>cluster_SEOperation_ctrl_in_valid</title>
<polygon fill="#cccccc" stroke="black" points="135,-344 32,-344 32,-308 135,-308 135,-344"/>
<text text-anchor="middle" x="83.5" y="-322.3" font-family="Times,serif" font-size="14.00">ctrl_in_valid</text>
</g>
<!-- cluster_SEOperation_decode_ctrl_in_valid -->
<g id="node17" class="node">
<title>cluster_SEOperation_decode_ctrl_in_valid</title>
<polygon fill="#cccccc" stroke="black" points="295,-344 192,-344 192,-308 295,-308 295,-344"/>
<text text-anchor="middle" x="243.5" y="-322.3" font-family="Times,serif" font-size="14.00">ctrl_in_valid</text>
</g>
<!-- cluster_SEOperation_ctrl_in_valid&#45;&gt;cluster_SEOperation_decode_ctrl_in_valid -->
<g id="edge21" class="edge">
<title>cluster_SEOperation_ctrl_in_valid&#45;&gt;cluster_SEOperation_decode_ctrl_in_valid</title>
<path fill="none" stroke="black" d="M135.36,-326C150.02,-326 166.17,-326 181.38,-326"/>
<polygon fill="black" stroke="black" points="181.73,-329.5 191.73,-326 181.73,-322.5 181.73,-329.5"/>
</g>
<!-- cluster_SEOperation_out_raw_result_is_a_byte -->
<g id="node7" class="node">
<title>cluster_SEOperation_out_raw_result_is_a_byte</title>
<polygon fill="#e0ffff" stroke="black" points="876,-87 682,-87 682,-51 876,-51 876,-87"/>
<text text-anchor="middle" x="779" y="-65.3" font-family="Times,serif" font-size="14.00">out_raw_result_is_a_byte</text>
</g>
<!-- mux_235277810 -->
<g id="node25" class="node">
<title>mux_235277810</title>
<polygon fill="#afeeee" stroke="transparent" points="920,-164 920,-214 992,-214 992,-164 920,-164"/>
<polygon fill="none" stroke="black" points="920,-189 920,-214 943,-214 943,-189 920,-189"/>
<text text-anchor="start" x="925" y="-197.8" font-family="Times,serif" font-size="14.00">●</text>
<polygon fill="none" stroke="black" points="943,-164 943,-214 969,-214 969,-164 943,-164"/>
<text text-anchor="start" x="948" y="-185.3" font-family="Times,serif" font-size="14.00">a?</text>
<polygon fill="none" stroke="black" points="969,-164 969,-214 992,-214 992,-164 969,-164"/>
<text text-anchor="start" x="974" y="-185.3" font-family="Times,serif" font-size="14.00">●</text>
<polygon fill="none" stroke="black" points="920,-164 920,-189 943,-189 943,-164 920,-164"/>
<text text-anchor="start" x="925" y="-172.8" font-family="Times,serif" font-size="14.00">●</text>
</g>
<!-- cluster_SEOperation_out_raw_result_is_a_byte&#45;&gt;mux_235277810 -->
<g id="edge20" class="edge">
<title>cluster_SEOperation_out_raw_result_is_a_byte&#45;&gt;mux_235277810:select</title>
<path fill="none" stroke="black" d="M876.24,-85.21C913.8,-97.06 949.34,-117.51 955.17,-152.68"/>
<polygon fill="black" stroke="black" points="951.71,-153.31 956,-163 958.68,-152.75 951.71,-153.31"/>
</g>
<!-- cluster_SEOperation_out_raw_result -->
<g id="node8" class="node">
<title>cluster_SEOperation_out_raw_result</title>
<polygon fill="#e0ffff" stroke="black" points="1337,-194 1215,-194 1215,-158 1337,-158 1337,-194"/>
<text text-anchor="middle" x="1276" y="-172.3" font-family="Times,serif" font-size="14.00">out_raw_result</text>
</g>
<!-- cluster_SEOperation_ctrl_out_valid -->
<g id="node9" class="node">
<title>cluster_SEOperation_ctrl_out_valid</title>
<polygon fill="#e0ffff" stroke="black" points="835.5,-141 722.5,-141 722.5,-105 835.5,-105 835.5,-141"/>
<text text-anchor="middle" x="779" y="-119.3" font-family="Times,serif" font-size="14.00">ctrl_out_valid</text>
</g>
<!-- cluster_SEOperation_fu_in_fu_op -->
<g id="node10" class="node">
<title>cluster_SEOperation_fu_in_fu_op</title>
<polygon fill="#cccccc" stroke="black" points="627,-249 552,-249 552,-213 627,-213 627,-249"/>
<text text-anchor="middle" x="589.5" y="-227.3" font-family="Times,serif" font-size="14.00">in_fu_op</text>
</g>
<!-- cluster_SEOperation_fu_in_B -->
<g id="node11" class="node">
<title>cluster_SEOperation_fu_in_B</title>
<polygon fill="#cccccc" stroke="black" points="616.5,-411 562.5,-411 562.5,-375 616.5,-375 616.5,-411"/>
<text text-anchor="middle" x="589.5" y="-389.3" font-family="Times,serif" font-size="14.00">in_B</text>
</g>
<!-- cluster_SEOperation_fu_in_A -->
<g id="node12" class="node">
<title>cluster_SEOperation_fu_in_A</title>
<polygon fill="#cccccc" stroke="black" points="616.5,-357 562.5,-357 562.5,-321 616.5,-321 616.5,-357"/>
<text text-anchor="middle" x="589.5" y="-335.3" font-family="Times,serif" font-size="14.00">in_A</text>
</g>
<!-- cluster_SEOperation_fu_ctrl_in_valid -->
<g id="node13" class="node">
<title>cluster_SEOperation_fu_ctrl_in_valid</title>
<polygon fill="#cccccc" stroke="black" points="641,-303 538,-303 538,-267 641,-267 641,-303"/>
<text text-anchor="middle" x="589.5" y="-281.3" font-family="Times,serif" font-size="14.00">ctrl_in_valid</text>
</g>
<!-- cluster_SEOperation_fu_out_out -->
<g id="node14" class="node">
<title>cluster_SEOperation_fu_out_out</title>
<polygon fill="#e0ffff" stroke="black" points="624.5,-195 554.5,-195 554.5,-159 624.5,-159 624.5,-195"/>
<text text-anchor="middle" x="589.5" y="-173.3" font-family="Times,serif" font-size="14.00">out_out</text>
</g>
<!-- op_shl_960 -->
<g id="node26" class="node">
<title>op_shl_960</title>
<polygon fill="#d8bfd8" stroke="transparent" points="732.5,-217 732.5,-267 825.5,-267 825.5,-217 732.5,-217"/>
<polygon fill="none" stroke="black" points="733,-242 733,-267 762,-267 762,-242 733,-242"/>
<text text-anchor="start" x="741" y="-250.8" font-family="Times,serif" font-size="14.00">●</text>
<polygon fill="none" stroke="black" points="762,-217 762,-267 803,-267 803,-217 762,-217"/>
<text text-anchor="start" x="767" y="-238.3" font-family="Times,serif" font-size="14.00"> shl </text>
<polygon fill="none" stroke="black" points="803,-217 803,-267 826,-267 826,-217 803,-217"/>
<text text-anchor="start" x="808" y="-238.3" font-family="Times,serif" font-size="14.00">●</text>
<polygon fill="none" stroke="black" points="733,-217 733,-242 762,-242 762,-217 733,-217"/>
<text text-anchor="start" x="738" y="-225.8" font-family="Times,serif" font-size="14.00">56</text>
</g>
<!-- cluster_SEOperation_fu_out_out&#45;&gt;op_shl_960 -->
<g id="edge1" class="edge">
<title>cluster_SEOperation_fu_out_out&#45;&gt;op_shl_960:in1</title>
<path fill="none" stroke="black" d="M624.63,-190.21C634.29,-194.29 644.7,-199.03 654,-204 687.25,-221.76 690.28,-249.44 721.78,-254.27"/>
<polygon fill="black" stroke="black" points="721.78,-257.78 732,-255 722.28,-250.8 721.78,-257.78"/>
</g>
<!-- op_pad_961 -->
<g id="node27" class="node">
<title>op_pad_961</title>
<polygon fill="#d8bfd8" stroke="transparent" points="733,-164.5 733,-189.5 825,-189.5 825,-164.5 733,-164.5"/>
<polygon fill="none" stroke="black" points="733,-164 733,-189 756,-189 756,-164 733,-164"/>
<text text-anchor="start" x="738" y="-172.8" font-family="Times,serif" font-size="14.00">●</text>
<polygon fill="none" stroke="black" points="756,-164 756,-189 802,-189 802,-164 756,-164"/>
<text text-anchor="start" x="761" y="-172.8" font-family="Times,serif" font-size="14.00"> pad </text>
<polygon fill="none" stroke="black" points="802,-164 802,-189 825,-189 825,-164 802,-164"/>
<text text-anchor="start" x="807" y="-172.8" font-family="Times,serif" font-size="14.00">●</text>
</g>
<!-- cluster_SEOperation_fu_out_out&#45;&gt;op_pad_961 -->
<g id="edge19" class="edge">
<title>cluster_SEOperation_fu_out_out&#45;&gt;op_pad_961:in1</title>
<path fill="none" stroke="black" d="M624.52,-176.62C650.61,-176.37 687.82,-176.06 721.98,-176.01"/>
<polygon fill="black" stroke="black" points="722,-179.51 732,-176 722,-172.51 722,-179.51"/>
</g>
<!-- cluster_SEOperation_fu_ctrl_out_valid -->
<g id="node15" class="node">
<title>cluster_SEOperation_fu_ctrl_out_valid</title>
<polygon fill="#e0ffff" stroke="black" points="646,-141 533,-141 533,-105 646,-105 646,-141"/>
<text text-anchor="middle" x="589.5" y="-119.3" font-family="Times,serif" font-size="14.00">ctrl_out_valid</text>
</g>
<!-- cluster_SEOperation_fu_ctrl_out_valid&#45;&gt;cluster_SEOperation_ctrl_out_valid -->
<g id="edge8" class="edge">
<title>cluster_SEOperation_fu_ctrl_out_valid&#45;&gt;cluster_SEOperation_ctrl_out_valid</title>
<path fill="none" stroke="black" d="M646.25,-123C667.03,-123 690.81,-123 712.4,-123"/>
<polygon fill="black" stroke="black" points="712.47,-126.5 722.47,-123 712.47,-119.5 712.47,-126.5"/>
</g>
<!-- cluster_SEOperation_decode_out_isCmp -->
<g id="node18" class="node">
<title>cluster_SEOperation_decode_out_isCmp</title>
<polygon fill="#e0ffff" stroke="black" points="289.5,-128 197.5,-128 197.5,-92 289.5,-92 289.5,-128"/>
<text text-anchor="middle" x="243.5" y="-106.3" font-family="Times,serif" font-size="14.00">out_isCmp</text>
</g>
<!-- op_or_957 -->
<g id="node22" class="node">
<title>op_or_957</title>
<polygon fill="#d8bfd8" stroke="transparent" points="376,-44 376,-94 457,-94 457,-44 376,-44"/>
<polygon fill="none" stroke="black" points="376.5,-69 376.5,-94 399.5,-94 399.5,-69 376.5,-69"/>
<text text-anchor="start" x="381.5" y="-77.8" font-family="Times,serif" font-size="14.00">●</text>
<polygon fill="none" stroke="black" points="399.5,-44 399.5,-94 434.5,-94 434.5,-44 399.5,-44"/>
<text text-anchor="start" x="404.5" y="-65.3" font-family="Times,serif" font-size="14.00"> or </text>
<polygon fill="none" stroke="black" points="434.5,-44 434.5,-94 457.5,-94 457.5,-44 434.5,-44"/>
<text text-anchor="start" x="439.5" y="-65.3" font-family="Times,serif" font-size="14.00">●</text>
<polygon fill="none" stroke="black" points="376.5,-44 376.5,-69 399.5,-69 399.5,-44 376.5,-44"/>
<text text-anchor="start" x="381.5" y="-52.8" font-family="Times,serif" font-size="14.00">●</text>
</g>
<!-- cluster_SEOperation_decode_out_isCmp&#45;&gt;op_or_957 -->
<g id="edge23" class="edge">
<title>cluster_SEOperation_decode_out_isCmp&#45;&gt;op_or_957:in1</title>
<path fill="none" stroke="black" d="M289.77,-95.43C311.84,-89.42 339.19,-83.55 365.22,-82.26"/>
<polygon fill="black" stroke="black" points="365.59,-85.75 375.5,-82 365.41,-78.76 365.59,-85.75"/>
</g>
<!-- cluster_SEOperation_decode_out_cmov -->
<g id="node19" class="node">
<title>cluster_SEOperation_decode_out_cmov</title>
<polygon fill="#e0ffff" stroke="black" points="285.5,-236 201.5,-236 201.5,-200 285.5,-200 285.5,-236"/>
<text text-anchor="middle" x="243.5" y="-214.3" font-family="Times,serif" font-size="14.00">out_cmov</text>
</g>
<!-- mux_814332865 -->
<g id="node28" class="node">
<title>mux_814332865</title>
<polygon fill="#afeeee" stroke="transparent" points="377.5,-193 377.5,-243 455.5,-243 455.5,-193 377.5,-193"/>
<polygon fill="none" stroke="black" points="377.5,-218 377.5,-243 406.5,-243 406.5,-218 377.5,-218"/>
<text text-anchor="start" x="382.5" y="-226.8" font-family="Times,serif" font-size="14.00">10</text>
<polygon fill="none" stroke="black" points="406.5,-193 406.5,-243 432.5,-243 432.5,-193 406.5,-193"/>
<text text-anchor="start" x="411.5" y="-214.3" font-family="Times,serif" font-size="14.00">a?</text>
<polygon fill="none" stroke="black" points="432.5,-193 432.5,-243 455.5,-243 455.5,-193 432.5,-193"/>
<text text-anchor="start" x="437.5" y="-214.3" font-family="Times,serif" font-size="14.00">●</text>
<polygon fill="none" stroke="black" points="377.5,-193 377.5,-218 406.5,-218 406.5,-193 377.5,-193"/>
<text text-anchor="start" x="385.5" y="-201.8" font-family="Times,serif" font-size="14.00">●</text>
</g>
<!-- cluster_SEOperation_decode_out_cmov&#45;&gt;mux_814332865 -->
<g id="edge11" class="edge">
<title>cluster_SEOperation_decode_out_cmov&#45;&gt;mux_814332865:select</title>
<path fill="none" stroke="black" d="M285.53,-203.91C329.78,-189.67 396.36,-171.35 414.69,-183.23"/>
<polygon fill="black" stroke="black" points="411.62,-184.92 419.5,-192 417.76,-181.55 411.62,-184.92"/>
</g>
<!-- cluster_SEOperation_decode_out_fu_op -->
<g id="node20" class="node">
<title>cluster_SEOperation_decode_out_fu_op</title>
<polygon fill="#e0ffff" stroke="black" points="286,-182 201,-182 201,-146 286,-146 286,-182"/>
<text text-anchor="middle" x="243.5" y="-160.3" font-family="Times,serif" font-size="14.00">out_fu_op</text>
</g>
<!-- cluster_SEOperation_decode_out_fu_op&#45;&gt;mux_814332865 -->
<g id="edge6" class="edge">
<title>cluster_SEOperation_decode_out_fu_op&#45;&gt;mux_814332865:in2</title>
<path fill="none" stroke="black" d="M286.32,-179.97C312.89,-189.64 346,-200.72 366.37,-204.02"/>
<polygon fill="black" stroke="black" points="366.21,-207.52 376.5,-205 366.88,-200.56 366.21,-207.52"/>
</g>
<!-- cluster_SEOperation_decode_ctrl_out_valid -->
<g id="node21" class="node">
<title>cluster_SEOperation_decode_ctrl_out_valid</title>
<polygon fill="#e0ffff" stroke="black" points="300,-290 187,-290 187,-254 300,-254 300,-290"/>
<text text-anchor="middle" x="243.5" y="-268.3" font-family="Times,serif" font-size="14.00">ctrl_out_valid</text>
</g>
<!-- cluster_SEOperation_decode_ctrl_out_valid&#45;&gt;cluster_SEOperation_fu_ctrl_in_valid -->
<g id="edge3" class="edge">
<title>cluster_SEOperation_decode_ctrl_out_valid&#45;&gt;cluster_SEOperation_fu_ctrl_in_valid</title>
<path fill="none" stroke="black" d="M300.12,-276.72C311.95,-277.6 324.38,-278.42 336,-279 401.35,-282.27 476.31,-283.77 527.47,-284.45"/>
<polygon fill="black" stroke="black" points="527.65,-287.95 537.69,-284.58 527.73,-280.95 527.65,-287.95"/>
</g>
<!-- op_or_957&#45;&gt;cluster_SEOperation_out_raw_result_is_a_byte -->
<g id="edge4" class="edge">
<title>op_or_957:out&#45;&gt;cluster_SEOperation_out_raw_result_is_a_byte</title>
<path fill="none" stroke="black" d="M458.5,-69C529.57,-69 609.52,-69 671.67,-69"/>
<polygon fill="black" stroke="black" points="671.88,-72.5 681.88,-69 671.88,-65.5 671.88,-72.5"/>
</g>
<!-- op_and_958&#45;&gt;op_or_957 -->
<g id="edge17" class="edge">
<title>op_and_958:out&#45;&gt;op_or_957:in2</title>
<path fill="none" stroke="black" d="M290.5,-45C324.87,-45 335.41,-53.96 365.12,-55.71"/>
<polygon fill="black" stroke="black" points="365.4,-59.22 375.5,-56 365.6,-52.22 365.4,-59.22"/>
</g>
<!-- op_bits_959 -->
<g id="node24" class="node">
<title>op_bits_959</title>
<polygon fill="#d8bfd8" stroke="transparent" points="1044,-151 1044,-201 1171,-201 1171,-151 1044,-151"/>
<polygon fill="none" stroke="black" points="1044.5,-176 1044.5,-201 1101.5,-201 1101.5,-176 1044.5,-176"/>
<text text-anchor="start" x="1066.5" y="-184.8" font-family="Times,serif" font-size="14.00">●</text>
<polygon fill="none" stroke="black" points="1101.5,-151 1101.5,-201 1148.5,-201 1148.5,-151 1101.5,-151"/>
<text text-anchor="start" x="1106.5" y="-172.3" font-family="Times,serif" font-size="14.00"> bits </text>
<polygon fill="none" stroke="black" points="1148.5,-151 1148.5,-201 1171.5,-201 1171.5,-151 1148.5,-151"/>
<text text-anchor="start" x="1153.5" y="-172.3" font-family="Times,serif" font-size="14.00">●</text>
<polygon fill="none" stroke="black" points="1044.5,-151 1044.5,-176 1101.5,-176 1101.5,-151 1044.5,-151"/>
<text text-anchor="start" x="1049.5" y="-159.8" font-family="Times,serif" font-size="14.00">(63, 0)</text>
</g>
<!-- op_bits_959&#45;&gt;cluster_SEOperation_out_raw_result -->
<g id="edge16" class="edge">
<title>op_bits_959:out&#45;&gt;cluster_SEOperation_out_raw_result</title>
<path fill="none" stroke="black" d="M1172.5,-176C1182.88,-176 1193.86,-176 1204.62,-176"/>
<polygon fill="black" stroke="black" points="1204.84,-179.5 1214.84,-176 1204.84,-172.5 1204.84,-179.5"/>
</g>
<!-- mux_235277810&#45;&gt;op_bits_959 -->
<g id="edge7" class="edge">
<title>mux_235277810:out&#45;&gt;op_bits_959:in1</title>
<path fill="none" stroke="black" d="M993,-189C1011.59,-189 1018.63,-189 1033.25,-189"/>
<polygon fill="black" stroke="black" points="1033.5,-192.5 1043.5,-189 1033.5,-185.5 1033.5,-192.5"/>
</g>
<!-- op_shl_960&#45;&gt;mux_235277810 -->
<g id="edge2" class="edge">
<title>op_shl_960:out&#45;&gt;mux_235277810:in1</title>
<path fill="none" stroke="black" d="M827,-242C867.93,-242 873.67,-208.29 908.82,-202.76"/>
<polygon fill="black" stroke="black" points="909.29,-206.24 919,-202 908.77,-199.26 909.29,-206.24"/>
</g>
<!-- op_pad_961&#45;&gt;mux_235277810 -->
<g id="edge12" class="edge">
<title>op_pad_961:out&#45;&gt;mux_235277810:in2</title>
<path fill="none" stroke="black" d="M826,-176C863.78,-176 875.66,-176 908.99,-176"/>
<polygon fill="black" stroke="black" points="909,-179.5 919,-176 909,-172.5 909,-179.5"/>
</g>
<!-- mux_814332865&#45;&gt;cluster_SEOperation_fu_in_fu_op -->
<g id="edge22" class="edge">
<title>mux_814332865:out&#45;&gt;cluster_SEOperation_fu_in_fu_op</title>
<path fill="none" stroke="black" d="M456.5,-218C484.94,-218 516.65,-221.02 541.87,-224.16"/>
<polygon fill="black" stroke="black" points="541.53,-227.64 551.89,-225.45 542.42,-220.7 541.53,-227.64"/>
</g>
<!-- op_bits_962&#45;&gt;cluster_SEOperation_fu_in_B -->
<g id="edge14" class="edge">
<title>op_bits_962:out&#45;&gt;cluster_SEOperation_fu_in_B</title>
<path fill="none" stroke="black" d="M478.5,-458C478.5,-422.97 520.35,-406.43 552.43,-398.89"/>
<polygon fill="black" stroke="black" points="553.39,-402.26 562.43,-396.75 551.92,-395.42 553.39,-402.26"/>
</g>
<!-- op_bits_963&#45;&gt;cluster_SEOperation_fu_in_A -->
<g id="edge5" class="edge">
<title>op_bits_963:out&#45;&gt;cluster_SEOperation_fu_in_A</title>
<path fill="none" stroke="black" d="M490.5,-362C511.44,-362 534.24,-356.96 552.58,-351.6"/>
<polygon fill="black" stroke="black" points="553.74,-354.91 562.27,-348.62 551.68,-348.22 553.74,-354.91"/>
</g>
</g>
</svg>
